<svg width="13" height="12" viewBox="0 0 13 12" fill="none" xmlns="http://www.w3.org/2000/svg">
<path d="M0 2.44C0 1.88772 0.447715 1.44 1 1.44H1.92V1C1.92 0.447715 2.36772 0 2.92 0H3.32C3.87229 0 4.32 0.447715 4.32 1V1.44H8.16V1C8.16 0.447715 8.60772 0 9.16 0H9.56C10.1123 0 10.56 0.447715 10.56 1V1.44H11.48C12.0323 1.44 12.48 1.88772 12.48 2.44V11C12.48 11.5523 12.0323 12 11.48 12H0.999999C0.447714 12 0 11.5523 0 11V2.44ZM0.891428 10.04C0.891428 10.5923 1.33914 11.04 1.89143 11.04H10.5886C11.1409 11.04 11.5886 10.5923 11.5886 10.04V4.32H0.891428V10.04Z" fill="#A1A1A1"/>
</svg>
