<svg xmlns="http://www.w3.org/2000/svg" width="32" height="32" viewBox="0 0 32 32" fill="none">
  <rect width="32" height="32" rx="8" fill="#D8E2DC"/>
  <path d="M10.4279 17.0501C8.71639 17.0501 7.51594 15.5872 7.51594 14.0786C7.51594 12.5701 8.85994 11.2261 10.4279 11.2261C11.9959 11.2261 13.2805 12.6193 13.2805 14.0786C13.2805 15.5379 12.1395 17.0501 10.4279 17.0501Z" fill="white"/>
  <path d="M5.92155 20.4851C6.62359 18.8784 8.18067 17.4981 10.428 17.4981C12.6752 17.4981 14.2324 18.8784 14.9344 20.4851C15.3767 21.4973 14.4606 22.4261 13.356 22.4261H10.428H7.5C6.39543 22.4261 5.47928 21.4973 5.92155 20.4851Z" fill="white"/>
  <path d="M21.9262 17.0501C20.2147 17.0501 19.0142 15.5872 19.0142 14.0786C19.0142 12.5701 20.3582 11.2261 21.9262 11.2261C23.4942 11.2261 24.7788 12.6193 24.7788 14.0786C24.7788 15.5379 23.6378 17.0501 21.9262 17.0501Z" fill="white"/>
  <path d="M17.4198 20.4851C18.1219 18.8784 19.679 17.4981 21.9262 17.4981C24.1735 17.4981 25.7307 18.8784 26.4327 20.4851C26.875 21.4973 25.9589 22.4261 24.8543 22.4261H21.9262H18.9983C17.8937 22.4261 16.9776 21.4973 17.4198 20.4851Z" fill="white"/>
  <path d="M12.2873 12.5657C12.2873 14.5714 13.8823 16.53 16.1773 16.53C18.4812 16.53 19.993 14.4999 19.993 12.5657C19.993 10.6097 18.2814 8.75 16.1773 8.75C14.0825 8.75 12.2873 10.5386 12.2873 12.5657ZM16.1773 16.59C13.0265 16.59 10.9207 18.6776 10.1256 20.957C9.91091 21.5724 10.0765 22.1564 10.4524 22.5773C10.8238 22.9931 11.3979 23.25 12.0173 23.25H16.1773H20.3373C20.9568 23.25 21.5309 22.9931 21.9023 22.5773C22.2782 22.1564 22.4438 21.5724 22.2291 20.957C21.4339 18.6776 19.328 16.59 16.1773 16.59Z" fill="white" stroke="#D8E2DC" stroke-width="0.5"/>
</svg>