<svg xmlns="http://www.w3.org/2000/svg" width="32" height="32" viewBox="0 0 32 32" fill="none">
  <g clip-path="url(#clip0_1689_2723)">
    <rect width="32" height="32" rx="8" fill="#B1A4C3"/>
    <path d="M9.92794 17.0501C8.21639 17.0501 7.01594 15.5872 7.01594 14.0786C7.01594 12.5701 8.35994 11.2261 9.92794 11.2261C11.4959 11.2261 12.7805 12.6193 12.7805 14.0786C12.7805 15.5379 11.6395 17.0501 9.92794 17.0501Z" fill="white"/>
    <path d="M5.42155 20.4851C6.12359 18.8784 7.68067 17.4981 9.92795 17.4981C12.1752 17.4981 13.7324 18.8784 14.4344 20.4851C14.8767 21.4973 13.9606 22.4261 12.856 22.4261H9.92795H7C5.89543 22.4261 4.97928 21.4973 5.42155 20.4851Z" fill="white"/>
    <path d="M21.426 17.0501C19.7144 17.0501 18.514 15.5872 18.514 14.0786C18.514 12.5701 19.858 11.2261 21.426 11.2261C22.994 11.2261 24.2786 12.6193 24.2786 14.0786C24.2786 15.5379 23.1375 17.0501 21.426 17.0501Z" fill="white"/>
    <path d="M16.9196 20.4851C17.6216 18.8784 19.1787 17.4981 21.426 17.4981C23.6733 17.4981 25.2304 18.8784 25.9325 20.4851C26.3748 21.4973 25.4586 22.4261 24.354 22.4261H21.426H18.498C17.3935 22.4261 16.4773 21.4973 16.9196 20.4851Z" fill="white"/>
    <path d="M11.787 12.5657C11.787 14.5714 13.3821 16.53 15.677 16.53C17.9809 16.53 19.4927 14.4999 19.4927 12.5657C19.4927 10.6097 17.7812 8.75 15.677 8.75C13.5823 8.75 11.787 10.5386 11.787 12.5657ZM15.677 16.59C12.5263 16.59 10.4204 18.6776 9.62532 20.957C9.41066 21.5724 9.57622 22.1564 9.95213 22.5773C10.3235 22.9931 10.8976 23.25 11.5171 23.25H15.677H19.8371C20.4566 23.25 21.0307 22.9931 21.402 22.5773C21.778 22.1564 21.9435 21.5724 21.7288 20.957C20.9337 18.6776 18.8278 16.59 15.677 16.59Z" fill="white" stroke="#B1A4C3" stroke-width="0.5"/>
  </g>
  <defs>
    <clipPath id="clip0_1689_2723">
      <rect width="32" height="32" fill="white"/>
    </clipPath>
  </defs>
</svg>