<svg width="56" height="21" viewBox="0 0 56 21" fill="none" xmlns="http://www.w3.org/2000/svg">
<path d="M4.22969 15.209C3.63569 15.187 3.05635 15.077 2.49169 14.879C1.93435 14.6737 1.44302 14.3987 1.01769 14.054C0.599688 13.702 0.295354 13.2987 0.104688 12.844L1.68869 12.162C1.79869 12.4113 1.99669 12.646 2.28269 12.866C2.56869 13.086 2.89869 13.262 3.27269 13.394C3.64669 13.526 4.02435 13.592 4.40569 13.592C4.80902 13.592 5.18669 13.5297 5.53869 13.405C5.89069 13.2803 6.17669 13.097 6.39669 12.855C6.62402 12.6057 6.73769 12.3087 6.73769 11.964C6.73769 11.5973 6.61302 11.3113 6.36369 11.106C6.12169 10.8933 5.81369 10.7283 5.43969 10.611C5.07302 10.4863 4.69902 10.369 4.31769 10.259C3.56235 10.0683 2.88769 9.841 2.29369 9.577C1.69969 9.30567 1.23035 8.96467 0.885688 8.554C0.548354 8.136 0.379688 7.60433 0.379688 6.959C0.379688 6.277 0.566688 5.68667 0.940688 5.188C1.32202 4.68933 1.82069 4.30433 2.43669 4.033C3.05269 3.76167 3.71269 3.626 4.41669 3.626C5.30402 3.626 6.11435 3.81667 6.84769 4.198C7.58102 4.57933 8.12735 5.09633 8.48669 5.749L7.00169 6.618C6.87702 6.354 6.68635 6.123 6.42969 5.925C6.17302 5.71967 5.87969 5.55833 5.54969 5.441C5.21969 5.32367 4.88235 5.26133 4.53769 5.254C4.11235 5.23933 3.71269 5.29433 3.33869 5.419C2.97202 5.54367 2.67502 5.73433 2.44769 5.991C2.22769 6.24033 2.11769 6.552 2.11769 6.926C2.11769 7.29267 2.23502 7.57133 2.46969 7.762C2.71169 7.95267 3.02335 8.10667 3.40469 8.224C3.79335 8.334 4.21502 8.46233 4.66969 8.609C5.33702 8.82167 5.96035 9.06733 6.53969 9.346C7.11902 9.62467 7.58469 9.973 7.93669 10.391C8.29602 10.809 8.47202 11.326 8.46469 11.942C8.46469 12.6167 8.26302 13.207 7.85969 13.713C7.45635 14.2117 6.93202 14.593 6.28669 14.857C5.64869 15.121 4.96302 15.2383 4.22969 15.209ZM16.0473 5.848H13.5503L13.5393 15H11.6913L11.7023 5.848H9.8103V4H11.7023L11.6913 0.546H13.5393L13.5503 4H16.0473V5.848ZM21.2668 15.209C20.6728 15.187 20.0935 15.077 19.5288 14.879C18.9715 14.6737 18.4801 14.3987 18.0548 14.054C17.6368 13.702 17.3325 13.2987 17.1418 12.844L18.7258 12.162C18.8358 12.4113 19.0338 12.646 19.3198 12.866C19.6058 13.086 19.9358 13.262 20.3098 13.394C20.6838 13.526 21.0615 13.592 21.4428 13.592C21.8461 13.592 22.2238 13.5297 22.5758 13.405C22.9278 13.2803 23.2138 13.097 23.4338 12.855C23.6611 12.6057 23.7748 12.3087 23.7748 11.964C23.7748 11.5973 23.6501 11.3113 23.4008 11.106C23.1588 10.8933 22.8508 10.7283 22.4768 10.611C22.1101 10.4863 21.7361 10.369 21.3548 10.259C20.5995 10.0683 19.9248 9.841 19.3308 9.577C18.7368 9.30567 18.2675 8.96467 17.9228 8.554C17.5855 8.136 17.4168 7.60433 17.4168 6.959C17.4168 6.277 17.6038 5.68667 17.9778 5.188C18.3591 4.68933 18.8578 4.30433 19.4738 4.033C20.0898 3.76167 20.7498 3.626 21.4538 3.626C22.3411 3.626 23.1515 3.81667 23.8848 4.198C24.6181 4.57933 25.1645 5.09633 25.5238 5.749L24.0388 6.618C23.9141 6.354 23.7235 6.123 23.4668 5.925C23.2101 5.71967 22.9168 5.55833 22.5868 5.441C22.2568 5.32367 21.9195 5.26133 21.5748 5.254C21.1495 5.23933 20.7498 5.29433 20.3758 5.419C20.0091 5.54367 19.7121 5.73433 19.4848 5.991C19.2648 6.24033 19.1548 6.552 19.1548 6.926C19.1548 7.29267 19.2721 7.57133 19.5068 7.762C19.7488 7.95267 20.0605 8.10667 20.4418 8.224C20.8305 8.334 21.2521 8.46233 21.7068 8.609C22.3741 8.82167 22.9975 9.06733 23.5768 9.346C24.1561 9.62467 24.6218 9.973 24.9738 10.391C25.3331 10.809 25.5091 11.326 25.5018 11.942C25.5018 12.6167 25.3001 13.207 24.8968 13.713C24.4935 14.2117 23.9691 14.593 23.3238 14.857C22.6858 15.121 22.0001 15.2383 21.2668 15.209ZM29.2344 20.5H27.3864V4H29.2344V5.881C29.6084 5.23567 30.1071 4.715 30.7304 4.319C31.3537 3.91567 32.0944 3.714 32.9524 3.714C33.7517 3.714 34.4997 3.86433 35.1964 4.165C35.9004 4.46567 36.5164 4.88367 37.0444 5.419C37.5724 5.947 37.9867 6.55933 38.2874 7.256C38.5881 7.95267 38.7384 8.70067 38.7384 9.5C38.7384 10.2993 38.5881 11.051 38.2874 11.755C37.9867 12.459 37.5724 13.0787 37.0444 13.614C36.5164 14.142 35.9004 14.5563 35.1964 14.857C34.4997 15.1577 33.7517 15.308 32.9524 15.308C32.0944 15.308 31.3537 15.11 30.7304 14.714C30.1071 14.3107 29.6084 13.7863 29.2344 13.141V20.5ZM32.9304 5.507C32.2191 5.507 31.5957 5.68667 31.0604 6.046C30.5251 6.40533 30.1107 6.88567 29.8174 7.487C29.5314 8.08833 29.3884 8.75933 29.3884 9.5C29.3884 10.2333 29.5314 10.9043 29.8174 11.513C30.1107 12.1217 30.5214 12.6057 31.0494 12.965C31.5847 13.3243 32.2117 13.504 32.9304 13.504C33.6417 13.504 34.2944 13.328 34.8884 12.976C35.4824 12.6167 35.9591 12.1363 36.3184 11.535C36.6777 10.9263 36.8574 10.248 36.8574 9.5C36.8574 8.76667 36.6814 8.09933 36.3294 7.498C35.9774 6.88933 35.5044 6.40533 34.9104 6.046C34.3164 5.68667 33.6564 5.507 32.9304 5.507ZM45.3534 15.286C44.3414 15.286 43.4174 15.0257 42.5814 14.505C41.7527 13.9843 41.089 13.2877 40.5904 12.415C40.099 11.535 39.8534 10.5633 39.8534 9.5C39.8534 8.69333 39.9964 7.94167 40.2824 7.245C40.5684 6.541 40.9607 5.925 41.4594 5.397C41.9654 4.86167 42.552 4.44367 43.2194 4.143C43.8867 3.84233 44.598 3.692 45.3534 3.692C46.182 3.692 46.941 3.86067 47.6304 4.198C48.327 4.528 48.921 4.99 49.4124 5.584C49.911 6.178 50.2814 6.86733 50.5234 7.652C50.7727 8.43667 50.8644 9.27633 50.7984 10.171H41.8224C41.9104 10.7943 42.1157 11.3517 42.4384 11.843C42.761 12.327 43.1717 12.712 43.6704 12.998C44.1764 13.284 44.7374 13.4307 45.3534 13.438C46.0134 13.438 46.611 13.2693 47.1464 12.932C47.6817 12.5873 48.1144 12.118 48.4444 11.524L50.3254 11.964C49.8854 12.9393 49.2217 13.7387 48.3344 14.362C47.447 14.978 46.4534 15.286 45.3534 15.286ZM41.7674 8.719H48.9394C48.8807 8.103 48.6827 7.542 48.3454 7.036C48.008 6.52267 47.579 6.112 47.0584 5.804C46.5377 5.496 45.9694 5.342 45.3534 5.342C44.7374 5.342 44.1727 5.49233 43.6594 5.793C43.146 6.09367 42.7207 6.50067 42.3834 7.014C42.0534 7.52 41.848 8.08833 41.7674 8.719Z" fill="#223843"/>
<path d="M53.7374 15.286C53.3561 15.286 53.0298 15.154 52.7584 14.89C52.4944 14.6187 52.3624 14.2887 52.3624 13.9C52.3624 13.526 52.4944 13.2033 52.7584 12.932C53.0298 12.6607 53.3561 12.525 53.7374 12.525C54.1188 12.525 54.4451 12.6607 54.7164 12.932C54.9878 13.2033 55.1234 13.526 55.1234 13.9C55.1234 14.2887 54.9878 14.6187 54.7164 14.89C54.4451 15.154 54.1188 15.286 53.7374 15.286Z" fill="#FF8000"/>
</svg>
