<svg xmlns="http://www.w3.org/2000/svg" width="32" height="32" viewBox="0 0 32 32" fill="none">
  <g clip-path="url(#clip0_1689_2720)">
    <rect width="32" height="32" rx="8" fill="#B1A4C3"/>
    <path d="M11.6537 22.686L9.314 20.3463C9.05117 20.0834 8.60364 20.1891 8.4861 20.5417L7.31623 24.0513C7.18593 24.4422 7.5578 24.8141 7.94868 24.6838L11.4583 23.5139C11.8109 23.3964 11.9166 22.9488 11.6537 22.686Z" fill="white"/>
    <path d="M12.4529 22.3239L9.67613 19.5471C9.48087 19.3518 9.48087 19.0353 9.67613 18.84L17.6787 10.8374C17.874 10.6422 18.1905 10.6422 18.3858 10.8374L21.1626 13.6142C21.3578 13.8095 21.3578 14.126 21.1626 14.3213L13.16 22.3239C12.9647 22.5191 12.6482 22.5191 12.4529 22.3239Z" fill="white"/>
    <path d="M21.7432 13.0335L18.9665 10.2568C18.7712 10.0615 18.7712 9.74493 18.9665 9.54967L21.1626 7.35355C21.3578 7.15829 21.6744 7.15829 21.8697 7.35355L24.6464 10.1303C24.8417 10.3256 24.8417 10.6422 24.6464 10.8374L22.4503 13.0335C22.2551 13.2288 21.9385 13.2288 21.7432 13.0335Z" fill="white"/>
  </g>
  <defs>
    <clipPath id="clip0_1689_2720">
      <rect width="32" height="32" fill="white"/>
    </clipPath>
  </defs>
</svg>